<?xml version="1.0" encoding="utf-8"?>
<!-- Generator: Adobe Illustrator 23.0.3, SVG Export Plug-In . SVG Version: 6.00 Build 0)  -->
<svg version="1.1" id="Layer_1" xmlns="http://www.w3.org/2000/svg" xmlns:xlink="http://www.w3.org/1999/xlink" x="0px" y="0px"
	 viewBox="0 0 200 30" style="enable-background:new 0 0 200 30;" xml:space="preserve">
<style type="text/css">
	.st0{fill:#FFFFFF;}
	.st1{fill:#E4002B;}
	.st2{fill:#0033A0;}
</style>
<g>
	<rect x="0.11" y="0" class="st0" width="30" height="30"/>
	<g>
		<g>
			<path d="M15.76,14.02h2.58l-2.08,1.55l0.8,2.45L15,16.52l-2.06,1.51l0.81-2.45l-2.09-1.55h2.56L15,11.63L15.76,14.02z"/>
			<polygon class="st1" points="8.78,13.42 0,13.42 0,0 29.99,0 29.99,13.42 21.31,13.42 21.31,8.81 8.78,8.81 			"/>
			<polygon class="st2" points="8.78,16.58 0,16.58 0,29.99 29.99,29.99 29.99,16.57 21.31,16.57 21.31,21.19 8.78,21.19 			"/>
		</g>
		<g>
			<path class="st0" d="M42.77,11.43c-0.71,0.25-1.52,0.29-2.26,0.29h-3.55v-0.34c1.03,0.03,1.16-0.31,1.16-1.27V4.21
				c0-0.96-0.14-1.3-1.16-1.27V2.6h3.55c3.2,0,4.48,1.26,4.48,4.53C44.99,8.91,44.66,10.8,42.77,11.43z M40.51,3.23
				c-0.79,0-0.88,0.22-0.88,0.99v5.89c0,0.73,0.07,0.99,0.88,0.99c2.66,0,2.86-1.72,2.86-3.96C43.37,4.86,43.22,3.23,40.51,3.23z"/>
			<path class="st0" d="M50.56,11.85c-0.67,0-0.96-0.3-1.08-0.93c-0.51,0.56-1.08,0.93-1.88,0.93c-0.88,0-1.79-0.62-1.79-1.56
				c0-1.77,2.34-2.01,3.65-2.08V7.52c0-0.7,0.01-1.78-0.94-1.78c-1.36,0-0.42,1.64-1.67,1.64c-0.42,0-0.78-0.25-0.78-0.7
				c0-1.11,1.67-1.41,2.51-1.41c1.64,0,2.27,0.6,2.27,2.24v2.72c0,0.47,0,1.14,0.62,1.14c0.18,0,0.37-0.07,0.53-0.12v0.34
				C51.5,11.77,51.08,11.85,50.56,11.85z M49.46,8.72c-0.89,0.03-2.16,0.25-2.16,1.38c0,0.53,0.29,0.97,0.86,0.97
				c0.92,0,1.3-0.73,1.3-1.56V8.72z"/>
			<path class="st0" d="M52.28,11.71v-0.3c0.89,0,1.03-0.36,1.03-1.19v-6.3c0-0.75-0.27-1.09-1.03-1.09v-0.3l2.41-0.33v8.02
				c0,0.82,0.14,1.19,1.03,1.19v0.3H52.28z"/>
			<path class="st0" d="M56.39,11.71v-0.3c0.89,0,1.03-0.36,1.03-1.19v-6.3c0-0.75-0.27-1.09-1.03-1.09v-0.3L58.8,2.2v8.02
				c0,0.82,0.14,1.19,1.03,1.19v0.3H56.39z"/>
			<path class="st0" d="M64.83,11.85c-0.67,0-0.96-0.3-1.08-0.93c-0.51,0.56-1.08,0.93-1.88,0.93c-0.88,0-1.79-0.62-1.79-1.56
				c0-1.77,2.34-2.01,3.65-2.08V7.52c0-0.7,0.01-1.78-0.94-1.78c-1.36,0-0.42,1.64-1.67,1.64c-0.42,0-0.78-0.25-0.78-0.7
				c0-1.11,1.67-1.41,2.51-1.41c1.64,0,2.27,0.6,2.27,2.24v2.72c0,0.47,0,1.14,0.62,1.14c0.18,0,0.37-0.07,0.53-0.12v0.34
				C65.78,11.77,65.35,11.85,64.83,11.85z M63.74,8.72c-0.89,0.03-2.16,0.25-2.16,1.38c0,0.53,0.29,0.97,0.86,0.97
				c0.92,0,1.3-0.73,1.3-1.56V8.72z"/>
			<path class="st0" d="M68.64,11.85c-0.63,0-1.29-0.08-1.9-0.25l-0.08-1.83h0.4c0,0.89,0.63,1.62,1.55,1.62
				c0.62,0,1.25-0.36,1.25-1.04c0-1.37-3.15-1.22-3.15-3.3c0-1.34,1.25-1.77,2.38-1.77c0.53,0,1.04,0.1,1.56,0.23l0.08,1.62h-0.4
				c-0.08-0.75-0.53-1.38-1.36-1.38c-0.52,0-1.01,0.34-1.01,0.89c0,1.34,3.15,1.2,3.15,3.35C71.1,11.37,69.83,11.85,68.64,11.85z"/>
			<path class="st0" d="M79.44,11.85c-3.15,0-4.04-2.04-4.04-4.87c0-2.64,0.88-4.52,3.82-4.52c0.93,0,1.86,0.12,2.74,0.41l0.08,2.29
				h-0.4c-0.03-0.29-0.14-0.59-0.29-0.83c-0.42-0.74-1.14-1.2-2-1.2c-2.07,0-2.34,2.27-2.34,3.86c0,1.7,0.52,4.11,2.66,4.11
				c0.9,0,1.66-0.18,2.39-0.7v0.94C81.2,11.71,80.38,11.85,79.44,11.85z"/>
			<path class="st0" d="M85.62,11.85c-2.15,0-2.93-1.26-2.93-3.29c0-2.03,0.78-3.28,2.93-3.28c2.15,0,2.93,1.26,2.93,3.28
				C88.55,10.59,87.77,11.85,85.62,11.85z M85.62,5.75c-1.37,0-1.44,1.83-1.44,2.82c0,0.99,0.07,2.82,1.44,2.82
				c1.37,0,1.44-1.83,1.44-2.82C87.06,7.58,86.99,5.75,85.62,5.75z"/>
			<path class="st0" d="M93.74,11.85v-1.62h-0.03c-0.44,0.84-1.04,1.62-2.08,1.62c-1.31,0-1.82-0.53-1.82-1.82V7
				c0-0.75-0.27-1.09-1.03-1.09v-0.3l2.41-0.33v3.64c0,0.33,0,0.66,0.04,0.97c0.08,0.67,0.26,1.12,1,1.12
				c0.81,0,1.51-1.59,1.51-2.27V7c0-0.75-0.27-1.09-1.03-1.09v-0.3l2.41-0.33v4.85c0,0.75,0.27,1.09,1.03,1.09v0.3L93.74,11.85z"/>
			<path class="st0" d="M100.31,11.71v-0.3c0.89,0,1.03-0.37,1.03-1.19V8.21c0-0.33,0-0.66-0.04-0.97
				c-0.05-0.57-0.15-1.12-0.83-1.12c-0.86,0-1.67,1.52-1.67,2.27v1.83c0,0.82,0.14,1.19,1.03,1.19v0.3h-3.44v-0.3
				c0.89,0,1.03-0.37,1.03-1.19V7c0-0.75-0.27-1.09-1.03-1.09v-0.3l2.41-0.33V6.9h0.03c0.49-0.89,1.14-1.62,2.24-1.62
				c1.29,0,1.66,0.63,1.66,1.82v3.12c0,0.82,0.14,1.19,1.03,1.19v0.3H100.31z"/>
			<path class="st0" d="M106.43,5.98v4.08c0,0.81,0.29,1.18,1.11,1.18c0.18,0,0.34-0.03,0.51-0.08v0.55
				c-0.25,0.1-0.52,0.15-0.78,0.15c-1.33,0-2.22-0.27-2.22-1.79V5.98h-1.11V5.59c1.46,0,2.01-1.16,2.09-2.45h0.4v2.27h1.78v0.56
				H106.43z"/>
			<path class="st0" d="M114.24,6.95l-2.23,5.64c-0.47,1.16-0.75,2.01-2.22,2.01c-0.57,0-1.52-0.23-1.52-0.96
				c0-0.44,0.34-0.74,0.77-0.74c0.86,0,0.59,1,1.27,1c0.62,0,1.04-1.34,1.22-1.77l-2.26-5.24c-0.34-0.78-0.52-1.18-1.46-1.18v-0.3
				h3.38v0.3c-0.25,0-0.71,0.01-0.71,0.36c0,0.16,0.15,0.48,0.2,0.63l1.49,3.68l1.31-3.49c0.07-0.18,0.22-0.51,0.22-0.7
				c0-0.44-0.4-0.48-0.75-0.48v-0.3h2.78v0.3C114.74,5.72,114.57,6.1,114.24,6.95z"/>
			<path class="st0" d="M41.51,25.54c-3.15,0-4.04-2.04-4.04-4.87c0-2.64,0.88-4.52,3.82-4.52c0.93,0,1.86,0.12,2.74,0.41l0.08,2.29
				h-0.4c-0.03-0.29-0.14-0.59-0.29-0.83c-0.42-0.74-1.14-1.2-2-1.2c-2.07,0-2.34,2.27-2.34,3.86c0,1.7,0.52,4.11,2.66,4.11
				c0.9,0,1.66-0.18,2.4-0.7v0.94C43.27,25.4,42.45,25.54,41.51,25.54z"/>
			<path class="st0" d="M47.7,25.54c-2.15,0-2.93-1.26-2.93-3.28c0-2.03,0.78-3.28,2.93-3.28c2.15,0,2.93,1.26,2.93,3.28
				C50.62,24.28,49.84,25.54,47.7,25.54z M47.7,19.43c-1.37,0-1.44,1.83-1.44,2.82c0,0.99,0.07,2.82,1.44,2.82
				c1.37,0,1.44-1.83,1.44-2.82C49.13,21.27,49.06,19.43,47.7,19.43z"/>
			<path class="st0" d="M58.66,25.4v-0.3c0.85,0.01,0.9-0.45,0.9-1.19v-2.19c0-0.33,0-0.64-0.03-0.97c-0.03-0.52-0.1-0.94-0.71-0.94
				c-0.99,0-1.6,1.44-1.6,2.27v1.83c0,0.73,0.07,1.2,0.9,1.19v0.3h-3.19v-0.3c0.84,0.01,0.9-0.47,0.9-1.19V21.9
				c0-0.33,0-0.67-0.03-1c-0.04-0.48-0.08-1.09-0.7-1.09c-1.11,0-1.61,1.34-1.61,2.27v1.83c0,0.73,0.07,1.2,0.9,1.19v0.3h-3.31v-0.3
				c0.89,0,1.03-0.37,1.03-1.19v-3.22c0-0.75-0.27-1.09-1.03-1.09v-0.3l2.41-0.33v1.46h0.03c0.44-0.85,1-1.46,2.04-1.46
				c1.14,0,1.55,0.44,1.64,1.52h0.03c0.51-0.9,1.01-1.52,2.15-1.52c1.59,0,1.56,1.12,1.56,2.38v2.56c0,0.84,0.14,1.19,1.03,1.19v0.3
				H58.66z"/>
			<path class="st0" d="M69.51,25.4v-0.3c0.85,0.01,0.9-0.45,0.9-1.19v-2.19c0-0.33,0-0.64-0.03-0.97c-0.03-0.52-0.1-0.94-0.71-0.94
				c-0.99,0-1.6,1.44-1.6,2.27v1.83c0,0.73,0.07,1.2,0.9,1.19v0.3h-3.19v-0.3c0.84,0.01,0.9-0.47,0.9-1.19V21.9
				c0-0.33,0-0.67-0.03-1c-0.04-0.48-0.08-1.09-0.7-1.09c-1.11,0-1.61,1.34-1.61,2.27v1.83c0,0.73,0.07,1.2,0.9,1.19v0.3h-3.31v-0.3
				c0.89,0,1.03-0.37,1.03-1.19v-3.22c0-0.75-0.27-1.09-1.03-1.09v-0.3l2.41-0.33v1.46h0.03c0.44-0.85,1-1.46,2.04-1.46
				c1.14,0,1.55,0.44,1.64,1.52h0.03c0.51-0.9,1.01-1.52,2.15-1.52c1.59,0,1.56,1.12,1.56,2.38v2.56c0,0.84,0.14,1.19,1.03,1.19v0.3
				H69.51z"/>
			<path class="st0" d="M77.52,25.54v-1.61h-0.03c-0.44,0.83-1.04,1.61-2.08,1.61c-1.31,0-1.82-0.53-1.82-1.82v-3.03
				c0-0.75-0.27-1.09-1.03-1.09v-0.3l2.41-0.33v3.64c0,0.33,0,0.66,0.04,0.97c0.08,0.67,0.26,1.12,1,1.12
				c0.81,0,1.51-1.59,1.51-2.27v-1.74c0-0.75-0.27-1.09-1.03-1.09v-0.3l2.41-0.33v4.85c0,0.75,0.27,1.09,1.03,1.09v0.3L77.52,25.54z
				"/>
			<path class="st0" d="M83.78,25.4v-0.3c0.89,0,1.03-0.37,1.03-1.19V21.9c0-0.33,0-0.66-0.04-0.97c-0.05-0.57-0.15-1.12-0.83-1.12
				c-0.86,0-1.67,1.52-1.67,2.27v1.83c0,0.82,0.14,1.19,1.03,1.19v0.3h-3.44v-0.3c0.89,0,1.03-0.37,1.03-1.19v-3.22
				c0-0.75-0.27-1.09-1.03-1.09v-0.3l2.41-0.33v1.62h0.03c0.49-0.89,1.14-1.62,2.24-1.62c1.29,0,1.66,0.63,1.66,1.82v3.12
				c0,0.82,0.14,1.19,1.03,1.19v0.3H83.78z"/>
			<path class="st0" d="M87.23,25.4v-0.3c0.89,0,1.03-0.36,1.03-1.19v-3.22c0-0.75-0.27-1.09-1.03-1.09v-0.3l2.41-0.33v4.94
				c0,0.84,0.14,1.19,1.03,1.19v0.3H87.23z M88.96,17.86c-0.49,0-0.85-0.38-0.85-0.86s0.37-0.85,0.85-0.85
				c0.48,0,0.86,0.37,0.86,0.85S89.44,17.86,88.96,17.86z"/>
			<path class="st0" d="M93.08,19.66v4.08c0,0.81,0.29,1.18,1.11,1.18c0.18,0,0.34-0.03,0.51-0.08v0.55
				c-0.25,0.1-0.52,0.15-0.78,0.15c-1.33,0-2.22-0.27-2.22-1.79v-4.08h-1.11v-0.38c1.46,0,2.01-1.16,2.09-2.45h0.4v2.27h1.78v0.56
				H93.08z"/>
			<path class="st0" d="M100.58,20.64l-2.23,5.64c-0.47,1.16-0.75,2.01-2.22,2.01c-0.57,0-1.52-0.23-1.52-0.96
				c0-0.44,0.34-0.74,0.77-0.74c0.86,0,0.59,1,1.27,1c0.62,0,1.04-1.34,1.22-1.77l-2.26-5.24c-0.34-0.78-0.52-1.18-1.46-1.18v-0.3
				h3.38v0.3c-0.25,0-0.71,0.01-0.71,0.36c0,0.16,0.15,0.48,0.2,0.63l1.49,3.68l1.31-3.49c0.07-0.18,0.22-0.51,0.22-0.7
				c0-0.44-0.4-0.48-0.75-0.48v-0.3h2.78v0.3C101.08,19.4,100.91,19.79,100.58,20.64z"/>
			<path class="st0" d="M109.78,25.54c-3.15,0-4.04-2.04-4.04-4.87c0-2.64,0.88-4.52,3.82-4.52c0.93,0,1.86,0.12,2.74,0.41
				l0.08,2.29h-0.4c-0.03-0.29-0.14-0.59-0.29-0.83c-0.42-0.74-1.14-1.2-2-1.2c-2.07,0-2.34,2.27-2.34,3.86
				c0,1.7,0.52,4.11,2.66,4.11c0.9,0,1.66-0.18,2.4-0.7v0.94C111.55,25.4,110.73,25.54,109.78,25.54z"/>
			<path class="st0" d="M115.97,25.54c-2.15,0-2.93-1.26-2.93-3.28c0-2.03,0.78-3.28,2.93-3.28s2.93,1.26,2.93,3.28
				C118.9,24.28,118.12,25.54,115.97,25.54z M115.97,19.43c-1.37,0-1.44,1.83-1.44,2.82c0,0.99,0.07,2.82,1.44,2.82
				c1.37,0,1.44-1.83,1.44-2.82C117.41,21.27,117.34,19.43,115.97,19.43z"/>
			<path class="st0" d="M119.24,25.4v-0.3c0.89,0,1.03-0.36,1.03-1.19v-6.3c0-0.75-0.27-1.09-1.03-1.09v-0.3l2.41-0.33v8.02
				c0,0.82,0.14,1.19,1.03,1.19v0.3H119.24z"/>
			<path class="st0" d="M122.53,25.4v-0.3c0.89,0,1.03-0.36,1.03-1.19v-6.3c0-0.75-0.27-1.09-1.03-1.09v-0.3l2.41-0.33v8.02
				c0,0.82,0.14,1.19,1.03,1.19v0.3H122.53z"/>
			<path class="st0" d="M127.65,21.55c0,1.57,0.63,3.37,2.49,3.37c0.42,0,0.86-0.08,1.26-0.23v0.49c-0.6,0.23-1.24,0.36-1.89,0.36
				c-2.22,0-3.35-1.34-3.35-3.5c0-1.9,0.88-3.07,2.86-3.07c1.72,0,2.5,0.93,2.5,2.59H127.65z M128.96,19.43
				c-0.86,0-1.31,0.77-1.31,1.56h2.49C130.14,20.17,129.93,19.43,128.96,19.43z"/>
			<path class="st0" d="M137.73,19.36c-0.41,0-0.52-0.29-0.71-0.29c-0.26,0-0.41,0.31-0.51,0.51c0.53,0.44,0.74,0.93,0.74,1.63
				c0,1.48-1.19,2.16-2.53,2.16c-0.42,0-0.77-0.06-1.16-0.21c-0.14,0.18-0.27,0.4-0.27,0.62c0,0.42,0.37,0.51,0.73,0.51h2.14
				c1.08,0,2.07,0.4,2.07,1.63c0,0.34-0.12,0.68-0.31,0.97c-0.69,1.01-2.03,1.4-3.19,1.4c-0.89,0-2.05-0.21-2.6-0.99
				c-0.14-0.18-0.23-0.4-0.23-0.63c0-0.59,0.45-0.97,0.86-1.31c-0.25-0.25-0.44-0.42-0.44-0.81c0-0.64,0.47-1.09,0.82-1.57
				c-0.66-0.46-0.96-0.93-0.96-1.77c0-1.52,1.14-2.24,2.56-2.24c0.55,0,1,0.14,1.48,0.38c0.3-0.62,0.73-1.49,1.53-1.49
				c0.42,0,0.74,0.34,0.74,0.75C138.47,19.03,138.16,19.36,137.73,19.36z M135.8,25.56h-2.64c-0.14,0.23-0.26,0.48-0.26,0.75
				c0,0.19,0.07,0.4,0.16,0.56c0.36,0.59,1.04,0.85,1.71,0.85c0.31,0,0.64-0.04,0.94-0.14c0.52-0.16,1.31-0.63,1.31-1.26
				C137.03,25.7,136.3,25.56,135.8,25.56z M134.72,19.43c-0.97,0-1.15,1.01-1.15,1.78c0,0.82,0.15,1.7,1.15,1.7
				c0.93,0,1.12-0.96,1.12-1.7C135.84,20.47,135.67,19.43,134.72,19.43z"/>
			<path class="st0" d="M140.05,21.55c0,1.57,0.63,3.37,2.49,3.37c0.42,0,0.86-0.08,1.26-0.23v0.49c-0.6,0.23-1.24,0.36-1.89,0.36
				c-2.22,0-3.35-1.34-3.35-3.5c0-1.9,0.88-3.07,2.86-3.07c1.72,0,2.5,0.93,2.5,2.59H140.05z M141.36,19.43
				c-0.86,0-1.31,0.77-1.31,1.56h2.49C142.54,20.17,142.33,19.43,141.36,19.43z"/>
			<path class="st0" d="M153.56,25.11c-0.71,0.25-1.52,0.29-2.26,0.29h-3.54v-0.34c1.03,0.03,1.16-0.31,1.16-1.27V17.9
				c0-0.96-0.14-1.3-1.16-1.27v-0.34h3.54c3.2,0,4.48,1.26,4.48,4.53C155.77,22.59,155.45,24.48,153.56,25.11z M151.3,16.91
				c-0.79,0-0.88,0.22-0.88,0.99v5.89c0,0.73,0.07,0.99,0.88,0.99c2.66,0,2.86-1.73,2.86-3.96
				C154.16,18.54,154.01,16.91,151.3,16.91z"/>
			<path class="st0" d="M156.38,25.4v-0.3c0.89,0,1.03-0.36,1.03-1.19v-3.22c0-0.75-0.27-1.09-1.03-1.09v-0.3l2.41-0.33v4.94
				c0,0.84,0.14,1.19,1.03,1.19v0.3H156.38z M158.11,17.86c-0.49,0-0.85-0.38-0.85-0.86s0.37-0.85,0.85-0.85
				c0.48,0,0.86,0.37,0.86,0.85S158.59,17.86,158.11,17.86z"/>
			<path class="st0" d="M162.08,25.54c-0.63,0-1.29-0.08-1.9-0.25l-0.08-1.83h0.4c0,0.89,0.63,1.62,1.55,1.62
				c0.62,0,1.25-0.36,1.25-1.04c0-1.37-3.15-1.22-3.15-3.3c0-1.34,1.25-1.77,2.38-1.77c0.53,0,1.04,0.1,1.56,0.23l0.08,1.62h-0.4
				c-0.08-0.75-0.53-1.38-1.36-1.38c-0.52,0-1.01,0.34-1.01,0.89c0,1.34,3.15,1.2,3.15,3.35C164.55,25.06,163.27,25.54,162.08,25.54
				z"/>
			<path class="st0" d="M167.34,19.66v4.08c0,0.81,0.29,1.18,1.11,1.18c0.18,0,0.34-0.03,0.51-0.08v0.55
				c-0.25,0.1-0.52,0.15-0.78,0.15c-1.33,0-2.22-0.27-2.22-1.79v-4.08h-1.11v-0.38c1.46,0,2.01-1.16,2.09-2.45h0.4v2.27h1.78v0.56
				H167.34z"/>
			<path class="st0" d="M173.2,20.44c-0.48,0-0.41-0.32-0.85-0.32c-0.15,0-0.3,0.1-0.4,0.21c-0.49,0.48-0.64,1.38-0.64,2.04v1.53
				c0,0.82,0.14,1.19,1.03,1.19v0.3h-3.44v-0.3c0.89,0,1.03-0.37,1.03-1.19v-3.22c0-0.75-0.27-1.09-1.03-1.09v-0.3l2.41-0.33v1.59
				h0.03c0.31-0.83,0.88-1.59,1.86-1.59c0.38,0,0.74,0.31,0.74,0.71C173.94,20.12,173.64,20.44,173.2,20.44z"/>
			<path class="st0" d="M173.84,25.4v-0.3c0.89,0,1.03-0.36,1.03-1.19v-3.22c0-0.75-0.27-1.09-1.03-1.09v-0.3l2.41-0.33v4.94
				c0,0.84,0.14,1.19,1.03,1.19v0.3H173.84z M175.58,17.86c-0.49,0-0.85-0.38-0.85-0.86s0.37-0.85,0.85-0.85s0.86,0.37,0.86,0.85
				S176.06,17.86,175.58,17.86z"/>
			<path class="st0" d="M181.72,21.11c-1.23,0-0.3-1.68-1.49-1.68c-1.1,0-1.19,1.45-1.19,2.24c0,1.44,0.52,3.24,2.26,3.24
				c0.41,0,0.82-0.08,1.22-0.2v0.49c-0.52,0.25-1.19,0.33-1.75,0.33c-2.29,0-3.22-1.42-3.22-3.57c0-1.81,0.9-3,2.79-3
				c0.81,0,2.22,0.4,2.22,1.41C182.56,20.85,182.18,21.11,181.72,21.11z"/>
			<path class="st0" d="M185.05,19.66v4.08c0,0.81,0.29,1.18,1.11,1.18c0.18,0,0.34-0.03,0.51-0.08v0.55
				c-0.25,0.1-0.52,0.15-0.78,0.15c-1.33,0-2.22-0.27-2.22-1.79v-4.08h-1.11v-0.38c1.47,0,2.01-1.16,2.09-2.45h0.4v2.27h1.78v0.56
				H185.05z"/>
		</g>
	</g>
</g>
</svg>
