<?xml version="1.0" encoding="utf-8"?>
<!-- Generator: Adobe Illustrator 23.0.1, SVG Export Plug-In . SVG Version: 6.00 Build 0)  -->
<svg version="1.1" xmlns="http://www.w3.org/2000/svg" xmlns:xlink="http://www.w3.org/1999/xlink" x="0px" y="0px"
	 viewBox="0 0 720 134" style="enable-background:new 0 0 720 134;" xml:space="preserve">
<style type="text/css">
	.st0{fill:#FFFFFF;}
	.st1{fill:#E4002B;}
	.st2{fill:#0033A0;}
</style>
<g id="Layer_2">
	<rect class="st0" width="720" height="134">
</g>
<g id="Layer_1">
	<g>
		<rect x="11.1" y="11" class="st0" width="112" height="112">
		<g>
			<path d="M69.9,63.5h9.6l-7.8,5.8l3,9.2l-7.6-5.7l-7.7,5.6l3-9.2l-7.8-5.8h9.6l2.9-8.9L69.9,63.5z">
			<polygon class="st1" points="43.9,61.2 11.1,61.2 11.1,11.1 123.1,11.1 123.1,61.2 90.7,61.2 90.7,44 43.9,44 			">
			<polygon class="st2" points="43.9,73 11.1,73 11.1,123.1 123.1,123.1 123.1,73 90.7,73 90.7,90.2 43.9,90.2 			">
		</g>
		<g>
			<path d="M170.8,53.8c-2.7,0.9-5.7,1.1-8.4,1.1h-13.3v-1.3c3.8,0.1,4.3-1.2,4.3-4.8v-22c0-3.6-0.5-4.9-4.3-4.8v-1.2h13.2
				c12,0,16.7,4.7,16.7,16.9C179.1,44.4,177.9,51.4,170.8,53.8z M162.4,23.2c-3,0-3.3,0.8-3.3,3.7v22c0,2.7,0.3,3.7,3.3,3.7
				c9.9,0,10.7-6.4,10.7-14.8C173.1,29.2,172.5,23.2,162.4,23.2z">
			<path d="M199.9,55.4c-2.5,0-3.6-1.1-4-3.5c-1.9,2.1-4,3.5-7,3.5c-3.3,0-6.7-2.3-6.7-5.8c0-6.6,8.7-7.5,13.6-7.8v-2.6
				c0-2.6,0.1-6.6-3.5-6.6c-5.1,0-1.6,6.1-6.2,6.1c-1.6,0-2.9-0.9-2.9-2.6c0-4.1,6.2-5.3,9.4-5.3c6.1,0,8.5,2.2,8.5,8.4v10.2
				c0,1.7,0,4.2,2.3,4.2c0.7,0,1.4-0.3,2-0.5v1.3C203.4,55,201.8,55.4,199.9,55.4z M195.8,43.6c-3.3,0.1-8.1,0.9-8.1,5.2
				c0,2,1.1,3.6,3.2,3.6c3.4,0,4.9-2.7,4.9-5.8L195.8,43.6L195.8,43.6z">
			<path d="M206.3,54.8v-1.1c3.3,0,3.8-1.3,3.8-4.4V25.8c0-2.8-1-4.1-3.8-4.1v-1.2l9-1.2v30c0,3.1,0.5,4.4,3.8,4.4v1.1H206.3z">
			<path d="M221.8,54.8v-1.1c3.3,0,3.8-1.3,3.8-4.4V25.8c0-2.8-1-4.1-3.8-4.1v-1.2l9-1.2v30c0,3.1,0.5,4.4,3.8,4.4v1.1H221.8z">
			<path d="M253.3,55.4c-2.5,0-3.6-1.1-4-3.5c-1.9,2.1-4,3.5-7,3.5c-3.3,0-6.7-2.3-6.7-5.8c0-6.6,8.7-7.5,13.6-7.8v-2.6
				c0-2.6,0.1-6.6-3.5-6.6c-5.1,0-1.6,6.1-6.2,6.1c-1.6,0-2.9-0.9-2.9-2.6c0-4.1,6.2-5.3,9.4-5.3c6.1,0,8.5,2.2,8.5,8.4v10.2
				c0,1.7,0,4.2,2.3,4.2c0.7,0,1.4-0.3,2-0.5v1.3C256.8,55,255.1,55.4,253.3,55.4z M249.1,43.6c-3.3,0.1-8.1,0.9-8.1,5.2
				c0,2,1.1,3.6,3.2,3.6c3.4,0,4.9-2.7,4.9-5.8L249.1,43.6L249.1,43.6z">
			<path d="M267.4,55.4c-2.4,0-4.8-0.3-7.1-0.9l-0.3-6.8h1.5c0,3.3,2.4,6,5.8,6c2.3,0,4.7-1.3,4.7-3.9c0-5.1-11.8-4.5-11.8-12.3
				c0-5,4.7-6.6,8.9-6.6c2,0,3.9,0.4,5.8,0.9l0.3,6h-1.5c-0.3-2.8-2-5.2-5.1-5.2c-1.9,0-3.8,1.3-3.8,3.3c0,5,11.8,4.5,11.8,12.5
				C276.6,53.6,271.9,55.4,267.4,55.4z">
			<path d="M307.8,55.4c-11.8,0-15.1-7.6-15.1-18.2c0-9.9,3.3-16.9,14.3-16.9c3.5,0,7,0.5,10.2,1.5l0.3,8.5h-1.5
				c-0.1-1.1-0.5-2.2-1.1-3.1c-1.6-2.8-4.2-4.5-7.5-4.5c-7.7,0-8.7,8.5-8.7,14.4c0,6.3,1.9,15.3,9.9,15.3c3.4,0,6.2-0.7,8.9-2.6v3.5
				C314.4,54.8,311.4,55.4,307.8,55.4z">
			<path d="M330.9,55.4c-8,0-10.9-4.7-10.9-12.3s2.9-12.3,10.9-12.3s10.9,4.7,10.9,12.3C341.9,50.7,338.9,55.4,330.9,55.4z
				 M330.9,32.6c-5.1,0-5.4,6.8-5.4,10.5c0,3.7,0.3,10.5,5.4,10.5s5.4-6.8,5.4-10.5C336.3,39.4,335.9,32.6,330.9,32.6z">
			<path d="M361.1,55.4v-6H361c-1.6,3.1-3.9,6-7.8,6c-4.9,0-6.8-2-6.8-6.8V37.3c0-2.8-1-4.1-3.8-4.1V32l9-1.2v13.6
				c0,1.2,0,2.5,0.2,3.6c0.3,2.5,1,4.2,3.7,4.2c3,0,5.6-5.9,5.6-8.5v-6.5c0-2.8-1-4.1-3.8-4.1V32l9-1.2v18.1c0,2.8,1,4.1,3.8,4.1
				v1.1L361.1,55.4z">
			<path d="M385.8,54.8v-1.1c3.3,0,3.8-1.4,3.8-4.4v-7.5c0-1.2,0-2.5-0.2-3.6c-0.2-2.1-0.6-4.2-3.1-4.2c-3.2,0-6.2,5.7-6.2,8.5v6.8
				c0,3.1,0.5,4.4,3.8,4.4v1.1H371v-1.1c3.3,0,3.8-1.4,3.8-4.4v-12c0-2.8-1-4.1-3.8-4.1V32l9-1.2v6h0.1c1.8-3.3,4.2-6,8.4-6
				c4.8,0,6.2,2.4,6.2,6.8v11.7c0,3.1,0.5,4.4,3.8,4.4v1.1H385.8z">
			<path d="M408.5,33.4v15.2c0,3,1.1,4.4,4.1,4.4c0.7,0,1.3-0.1,1.9-0.3v2c-0.9,0.4-1.9,0.6-2.9,0.6c-5,0-8.3-1-8.3-6.7V33.4h-4.1
				V32c5.5,0,7.5-4.3,7.8-9.1h1.5v8.5h6.6v2.1L408.5,33.4L408.5,33.4z">
			<path d="M437.8,37.1l-8.3,21.1c-1.7,4.3-2.8,7.5-8.3,7.5c-2.1,0-5.7-0.9-5.7-3.6c0-1.6,1.3-2.8,2.9-2.8c3.2,0,2.2,3.7,4.8,3.7
				c2.3,0,3.9-5,4.5-6.6l-8.4-19.6c-1.3-2.9-1.9-4.4-5.5-4.4v-1.1h12.6v1.1c-0.9,0-2.7,0.1-2.7,1.3c0,0.6,0.6,1.8,0.8,2.4l5.6,13.8
				l4.9-13c0.3-0.7,0.8-1.9,0.8-2.6c0-1.6-1.5-1.8-2.8-1.8v-1.1h10.4v1.1C439.6,32.5,438.9,33.9,437.8,37.1z">
			<path d="M166.1,106.5c-11.8,0-15.1-7.6-15.1-18.2c0-9.9,3.3-16.9,14.3-16.9c3.5,0,7,0.5,10.2,1.5l0.3,8.5h-1.5
				c-0.1-1.1-0.5-2.2-1.1-3.1c-1.6-2.8-4.2-4.5-7.5-4.5c-7.7,0-8.7,8.5-8.7,14.4c0,6.3,1.9,15.3,9.9,15.3c3.4,0,6.2-0.7,8.9-2.6v3.5
				C172.8,105.9,169.6,106.5,166.1,106.5z">
			<path d="M189.3,106.5c-8,0-10.9-4.7-10.9-12.3c0-7.6,2.9-12.3,10.9-12.3s10.9,4.7,10.9,12.3S197.3,106.5,189.3,106.5z
				 M189.3,83.7c-5.1,0-5.4,6.8-5.4,10.5s0.3,10.5,5.4,10.5c5.1,0,5.4-6.9,5.4-10.5C194.6,90.5,194.3,83.7,189.3,83.7z">
			<path d="M230.1,105.9v-1.1c3.2,0,3.4-1.7,3.4-4.4v-8.2c0-1.2,0-2.4-0.1-3.6c-0.1-1.9-0.4-3.5-2.7-3.5c-3.7,0-6,5.4-6,8.5v6.8
				c0,2.7,0.3,4.5,3.4,4.4v1.1h-11.9v-1.1c3.1,0,3.4-1.7,3.4-4.4v-7.5c0-1.2,0-2.5-0.1-3.7c-0.2-1.8-0.3-4.1-2.6-4.1
				c-4.1,0-6,5-6,8.5v6.8c0,2.7,0.3,4.5,3.4,4.4v1.1h-12.4v-1.1c3.3,0,3.8-1.4,3.8-4.4v-12c0-2.8-1-4.1-3.8-4.1v-1.1l9-1.2v5.5h0.1
				c1.6-3.2,3.7-5.5,7.6-5.5c4.2,0,5.8,1.6,6.1,5.7h0.1c1.9-3.4,3.8-5.7,8-5.7c5.9,0,5.8,4.2,5.8,8.9v9.6c0,3.1,0.5,4.4,3.8,4.4v1.1
				h-12.3V105.9z">
			<path d="M270.8,105.9v-1.1c3.2,0,3.4-1.7,3.4-4.4v-8.2c0-1.2,0-2.4-0.1-3.6c-0.1-1.9-0.4-3.5-2.7-3.5c-3.7,0-6,5.4-6,8.5v6.8
				c0,2.7,0.3,4.5,3.4,4.4v1.1h-11.9v-1.1c3.1,0,3.4-1.7,3.4-4.4v-7.5c0-1.2,0-2.5-0.1-3.7c-0.2-1.8-0.3-4.1-2.6-4.1
				c-4.1,0-6,5-6,8.5v6.8c0,2.7,0.3,4.5,3.4,4.4v1.1h-12.4v-1.1c3.3,0,3.8-1.4,3.8-4.4v-12c0-2.8-1-4.1-3.8-4.1v-1.1l9-1.2v5.5h0.1
				c1.6-3.2,3.7-5.5,7.6-5.5c4.2,0,5.8,1.6,6.1,5.7h0.1c1.9-3.4,3.8-5.7,8-5.7c5.9,0,5.8,4.2,5.8,8.9v9.6c0,3.1,0.5,4.4,3.8,4.4v1.1
				h-12.3V105.9z">
			<path d="M300.6,106.5v-6h-0.1c-1.6,3.1-3.9,6-7.8,6c-4.9,0-6.8-2-6.8-6.8V88.4c0-2.8-1-4.1-3.8-4.1v-1.1l9-1.2v13.6
				c0,1.2,0,2.5,0.2,3.6c0.3,2.5,1,4.2,3.7,4.2c3,0,5.6-5.9,5.6-8.5v-6.5c0-2.8-1-4.1-3.8-4.1v-1.1l9-1.2v18c0,2.8,1,4.1,3.8,4.1
				v1.1L300.6,106.5z">
			<path d="M323.9,105.9v-1.1c3.3,0,3.8-1.4,3.8-4.4v-7.5c0-1.2,0-2.5-0.2-3.6c-0.2-2.1-0.6-4.2-3.1-4.2c-3.2,0-6.2,5.7-6.2,8.5v6.8
				c0,3.1,0.5,4.4,3.8,4.4v1.1h-12.8v-1.1c3.3,0,3.8-1.4,3.8-4.4v-12c0-2.8-1-4.1-3.8-4.1v-1.1l9-1.2v6h0.1c1.8-3.3,4.2-6,8.4-6
				c4.8,0,6.2,2.4,6.2,6.8v11.7c0,3.1,0.5,4.4,3.8,4.4v1.1h-12.8V105.9z">
			<path d="M336.9,105.9v-1.1c3.3,0,3.8-1.3,3.8-4.4v-12c0-2.8-1-4.1-3.8-4.1v-1.1l9-1.2v18.4c0,3.1,0.5,4.4,3.8,4.4v1.1
				C349.6,105.9,336.9,105.9,336.9,105.9z M343.4,77.8c-1.8,0-3.2-1.4-3.2-3.2c0-1.8,1.4-3.2,3.2-3.2c1.8,0,3.2,1.4,3.2,3.2
				C346.6,76.4,345.1,77.8,343.4,77.8z">
			<path d="M358.8,84.5v15.2c0,3,1.1,4.4,4.1,4.4c0.7,0,1.3-0.1,1.9-0.3v2c-0.9,0.4-1.9,0.6-2.9,0.6c-5,0-8.3-1-8.3-6.7V84.5h-4.1
				v-1.4c5.5,0,7.5-4.3,7.8-9.2h1.5v8.5h6.6v2.1C365.4,84.5,358.8,84.5,358.8,84.5z">
			<path d="M386.8,88.2l-8.3,21.1c-1.7,4.3-2.8,7.5-8.3,7.5c-2.1,0-5.7-0.9-5.7-3.6c0-1.6,1.3-2.8,2.9-2.8c3.2,0,2.2,3.7,4.8,3.7
				c2.3,0,3.9-5,4.5-6.6L368.3,88c-1.3-2.9-1.9-4.4-5.5-4.4v-1.1h12.6v1.1c-0.9,0-2.7,0.1-2.7,1.3c0,0.6,0.6,1.8,0.8,2.4l5.6,13.8
				l4.9-13c0.3-0.7,0.8-1.9,0.8-2.6c0-1.6-1.5-1.8-2.8-1.8v-1.1h10.4v1.1C388.5,83.6,387.9,85,386.8,88.2z">
			<path d="M421,106.5c-11.8,0-15.1-7.6-15.1-18.2c0-9.9,3.3-16.9,14.3-16.9c3.5,0,7,0.5,10.2,1.5l0.3,8.5h-1.5
				c-0.1-1.1-0.5-2.2-1.1-3.1c-1.6-2.8-4.2-4.5-7.5-4.5c-7.7,0-8.7,8.5-8.7,14.4c0,6.3,1.9,15.3,9.9,15.3c3.4,0,6.2-0.7,8.9-2.6v3.5
				C427.6,105.9,424.6,106.5,421,106.5z">
			<path d="M444.3,106.5c-8,0-10.9-4.7-10.9-12.3c0-7.6,2.9-12.3,10.9-12.3s10.9,4.7,10.9,12.3C455.1,101.8,452.3,106.5,444.3,106.5
				z M444.3,83.7c-5.1,0-5.4,6.8-5.4,10.5s0.3,10.5,5.4,10.5s5.4-6.9,5.4-10.5C449.5,90.5,449.4,83.7,444.3,83.7z">
			<path d="M456.4,105.9v-1.1c3.3,0,3.8-1.3,3.8-4.4V76.9c0-2.8-1-4.1-3.8-4.1v-1.1l9-1.2v29.9c0,3.1,0.5,4.4,3.8,4.4v1.1H456.4z">
			<path d="M468.6,105.9v-1.1c3.3,0,3.8-1.3,3.8-4.4V76.9c0-2.8-1-4.1-3.8-4.1v-1.1l9-1.2v29.9c0,3.1,0.5,4.4,3.8,4.4v1.1H468.6z">
			<path d="M487.9,91.6c0,5.9,2.4,12.6,9.3,12.6c1.6,0,3.2-0.3,4.7-0.9v1.8c-2.2,0.9-4.6,1.3-7.1,1.3c-8.3,0-12.5-5-12.5-13.1
				c0-7.1,3.3-11.4,10.7-11.4c6.4,0,9.4,3.5,9.4,9.7H487.9z M492.8,83.7c-3.2,0-4.9,2.9-4.9,5.8h9.3
				C497.1,86.4,496.4,83.7,492.8,83.7z">
			<path d="M525.4,83.4c-1.5,0-1.9-1.1-2.7-1.1c-1,0-1.5,1.2-1.9,1.9c2,1.6,2.8,3.5,2.8,6.1c0,5.5-4.4,8.1-9.5,8.1
				c-1.6,0-2.9-0.2-4.3-0.8c-0.5,0.7-1,1.5-1,2.3c0,1.6,1.4,1.9,2.7,1.9h8c4,0,7.7,1.5,7.7,6.1c0,1.3-0.5,2.6-1.2,3.6
				c-2.6,3.8-7.6,5.2-11.9,5.2c-3.3,0-7.7-0.8-9.7-3.7c-0.5-0.7-0.9-1.5-0.9-2.4c0-2.2,1.7-3.6,3.2-4.9c-0.9-0.9-1.6-1.6-1.6-3
				c0-2.4,1.7-4.1,3.1-5.9c-2.5-1.7-3.6-3.5-3.6-6.6c0-5.7,4.2-8.4,9.6-8.4c2,0,3.7,0.5,5.5,1.4c1.1-2.3,2.7-5.6,5.7-5.6
				c1.6,0,2.8,1.3,2.8,2.8C528.3,82.2,527.1,83.4,525.4,83.4z M518.3,106.6h-9.9c-0.5,0.9-1,1.8-1,2.8c0,0.7,0.3,1.5,0.6,2.1
				c1.3,2.2,3.9,3.2,6.4,3.2c1.2,0,2.4-0.2,3.5-0.5c1.9-0.6,4.9-2.4,4.9-4.7C522.8,107.1,520.2,106.6,518.3,106.6z M514.3,83.7
				c-3.6,0-4.3,3.8-4.3,6.6c0,3.1,0.6,6.3,4.3,6.3c3.5,0,4.2-3.6,4.2-6.3C518.4,87.5,517.8,83.7,514.3,83.7z">
			<path d="M534.2,91.6c0,5.9,2.4,12.6,9.3,12.6c1.6,0,3.2-0.3,4.7-0.9v1.8c-2.2,0.9-4.6,1.3-7.1,1.3c-8.3,0-12.5-5-12.5-13.1
				c0-7.1,3.3-11.4,10.7-11.4c6.4,0,9.4,3.5,9.4,9.7H534.2z M539.1,83.7c-3.2,0-4.9,2.9-4.9,5.8h9.3
				C543.4,86.4,542.7,83.7,539.1,83.7z">
			<path d="M584.6,104.9c-2.7,0.9-5.7,1.1-8.4,1.1h-13.2v-1.3c3.8,0.1,4.3-1.2,4.3-4.8v-22c0-3.6-0.5-4.9-4.3-4.8v-1.3h13.2
				c12,0,16.7,4.7,16.7,16.9C592.8,95.5,591.7,102.5,584.6,104.9z M576.2,74.3c-3,0-3.3,0.8-3.3,3.7v22c0,2.7,0.3,3.7,3.3,3.7
				c9.9,0,10.7-6.4,10.7-14.8C586.8,80.3,586.3,74.3,576.2,74.3z">
			<path d="M595.1,105.9v-1.1c3.3,0,3.8-1.3,3.8-4.4v-12c0-2.8-1-4.1-3.8-4.1v-1.1l9-1.2v18.4c0,3.1,0.5,4.4,3.8,4.4v1.1
				C607.8,105.9,595.1,105.9,595.1,105.9z M601.6,77.8c-1.8,0-3.2-1.4-3.2-3.2c0-1.8,1.4-3.2,3.2-3.2c1.8,0,3.2,1.4,3.2,3.2
				C604.8,76.4,603.3,77.8,601.6,77.8z">
			<path d="M616.4,106.5c-2.4,0-4.8-0.3-7.1-0.9l-0.3-6.9h1.5c0,3.3,2.4,6,5.8,6c2.3,0,4.7-1.3,4.7-3.9c0-5.1-11.8-4.5-11.8-12.3
				c0-5,4.7-6.6,8.9-6.6c2,0,3.9,0.4,5.8,0.9l0.3,6h-1.5c-0.3-2.8-2-5.2-5.1-5.2c-1.9,0-3.8,1.3-3.8,3.3c0,5,11.8,4.5,11.8,12.5
				C625.7,104.7,620.8,106.5,616.4,106.5z">
			<path d="M636.1,84.5v15.2c0,3,1.1,4.4,4.1,4.4c0.7,0,1.3-0.1,1.9-0.3v2c-0.9,0.4-1.9,0.6-2.9,0.6c-5,0-8.3-1-8.3-6.7V84.5h-4.1
				v-1.4c5.5,0,7.5-4.3,7.8-9.2h1.5v8.5h6.6v2.1C642.7,84.5,636.1,84.5,636.1,84.5z">
			<path d="M657.9,87.4c-1.8,0-1.5-1.2-3.2-1.2c-0.6,0-1.1,0.4-1.5,0.8c-1.8,1.8-2.4,5.2-2.4,7.6v5.7c0,3.1,0.5,4.4,3.8,4.4v1.1
				h-12.8v-1.1c3.3,0,3.8-1.4,3.8-4.4v-12c0-2.8-1-4.1-3.8-4.1v-1.1l9-1.2v5.9h0.1c1.2-3.1,3.3-5.9,7-5.9c1.4,0,2.8,1.2,2.8,2.7
				C660.7,86.2,659.6,87.4,657.9,87.4z">
			<path d="M660.3,105.9v-1.1c3.3,0,3.8-1.3,3.8-4.4v-12c0-2.8-1-4.1-3.8-4.1v-1.1l9-1.2v18.4c0,3.1,0.5,4.4,3.8,4.4v1.1
				C673.2,105.9,660.3,105.9,660.3,105.9z M666.8,77.8c-1.8,0-3.2-1.4-3.2-3.2c0-1.8,1.4-3.2,3.2-3.2c1.8,0,3.2,1.4,3.2,3.2
				C669.9,76.4,668.6,77.8,666.8,77.8z">
			<path d="M689.8,90c-4.6,0-1.1-6.3-5.6-6.3c-4.1,0-4.4,5.4-4.4,8.4c0,5.4,1.9,12.1,8.4,12.1c1.5,0,3.1-0.3,4.5-0.8v1.8
				c-1.9,0.9-4.4,1.2-6.5,1.2c-8.5,0-12-5.3-12-13.3c0-6.7,3.4-11.2,10.4-11.2c3,0,8.3,1.5,8.3,5.3C692.8,89,691.4,90,689.8,90z">
			<path d="M702.2,84.5v15.2c0,3,1.1,4.4,4.1,4.4c0.7,0,1.3-0.1,1.9-0.3v2c-0.9,0.4-1.9,0.6-2.9,0.6c-5,0-8.3-1-8.3-6.7V84.5h-4.1
				v-1.4c5.5,0,7.5-4.3,7.8-9.2h1.5v8.5h6.6v2.1C708.8,84.5,702.2,84.5,702.2,84.5z">
		</g>
	</g>
</g>
</svg>
