<?xml version="1.0" encoding="UTF-8"?>
<svg id="Layer_1" data-name="Layer 1" xmlns="http://www.w3.org/2000/svg" viewBox="0 0 100 49.11">
  <defs>
    <style>
      .cls-1 {
        fill: #fff;
      }
    </style>
  </defs>
  <path class="cls-1" d="m44.1,18.24h-1.59v4.31h1.52c.17,0,.48-.1.96-.29.24-.09.43-.31.59-.67.15-.36.23-.77.23-1.23,0-.68-.12-1.21-.36-1.58s-.69-.55-1.35-.55Z">
  <polygon class="cls-1" points="30 27.07 32.57 27.07 31.28 19.45 30 27.07">
  <path class="cls-1" d="m99.54,23.67l-17.04-11.89L65.88.2c-.71-.5-1.69.01-1.69.88v5.73c0,.59-.48,1.08-1.08,1.08H1.08c-.59,0-1.08.48-1.08,1.08v31.2c0,.59.48,1.08,1.08,1.08h62.04c.59,0,1.08.48,1.08,1.08v5.73c0,.87.98,1.38,1.69.88l16.62-11.59,17.04-11.89c.61-.43.61-1.34,0-1.77ZM13,32.02c-.41,1.15-.99,2.02-1.74,2.61-.74.59-1.68.89-2.82.89-1.99,0-3.37-.69-4.13-2.08-.77-1.39-1.2-3.15-1.3-5.29l3.44-.39c.07,1.01.23,1.78.45,2.31.37.86.9,1.29,1.6,1.29.52,0,.91-.22,1.19-.66s.42-.95.42-1.53-.13-1.04-.4-1.48c-.27-.43-.88-.84-1.85-1.23-1.58-.65-2.72-1.5-3.39-2.57-.68-1.07-1.02-2.43-1.02-4.09,0-1.09.17-2.12.52-3.09.35-.97.87-1.73,1.57-2.29.7-.55,1.66-.83,2.88-.83,1.49,0,2.63.5,3.42,1.51.78,1.01,1.25,2.61,1.4,4.81l-3.41.36c-.09-.95-.28-1.65-.57-2.08-.29-.43-.69-.65-1.2-.65-.42,0-.74.16-.95.49-.21.32-.32.71-.32,1.18,0,.34.09.64.26.91.17.28.57.54,1.21.78,1.58.62,2.71,1.24,3.39,1.87.68.63,1.18,1.42,1.49,2.35.31.94.47,1.98.47,3.14,0,1.36-.21,2.61-.62,3.76Zm12.6-18.06v5.23h-3.69v15.96h-3.61v-15.96h-3.69v-5.23h10.99Zm8.3,21.2l-.58-3.5h-4.1l-.57,3.5h-3.69l4.4-21.2h3.94l4.4,21.2h-3.78Zm12.4,0l-1.93-6.48c-.24-.84-.46-1.38-.65-1.63-.26-.33-.56-.49-.89-.49h-.32v8.6h-3.63V13.96h6.02c1.12,0,1.97.17,2.56.52.59.35,1.07.99,1.43,1.93.36.94.54,2.08.54,3.43,0,1.18-.14,2.19-.42,3.04-.28.85-.66,1.54-1.14,2.08-.31.34-.73.62-1.27.84.43.26.74.52.94.78.13.17.33.54.58,1.11s.42,1.01.51,1.32l1.75,6.14h-4.08Zm15.26-15.96h-3.69v15.96h-3.62v-15.96h-3.69v-5.23h10.99v5.23Z">
</svg>