<svg xmlns="http://www.w3.org/2000/svg" viewBox="0 0 222.2 57.85"><defs><style>.a{fill:#003385;}.b{fill:#e52626;}</style></defs><path class="a" d="M84.44,13.45c0,7.5-5.51,12.88-13.28,12.88H60.75V.61H71.16C79,.61,84.44,5.93,84.44,13.45Zm-7.26,0A6,6,0,0,0,70.83,7.1h-3V19.84h3A6,6,0,0,0,77.18,13.45Z"/><path class="a" d="M101.64,22.15H92.52L91.1,26.33H83.5L93.61.61h6.92l10.33,25.72h-7.8ZM97.07,8.64l-2.82,8h5.66Z"/><path class="a" d="M130.07,19.84v6.49H113.73V.61h7.18V19.84Z"/><path class="a" d="M148.94,19.84v6.49H132.6V.61h7.18V19.84Z"/><path class="a" d="M168.57,22.15h-9.12L158,26.33h-7.6L160.54.61h6.92l10.33,25.72H170ZM164,8.64l-2.82,8h5.66Z"/><path class="a" d="M177.07,18h7.31a2.73,2.73,0,0,0,3,2.74c1.48,0,2.9-.79,2.9-2.2,0-1.61-2-2.08-4.45-2.67C182.14,15,177.4,13.82,177.4,8c0-5.07,3.72-8,9.78-8s9.71,3.17,9.71,8.4h-7.11c0-1.63-1.21-2.39-2.68-2.39-1.26,0-2.48.55-2.48,1.75,0,1.46,1.94,1.94,4.36,2.55,3.79,1,8.74,2.24,8.74,8.12,0,5.61-4.32,8.53-10.29,8.53C181.13,27,177.07,23.63,177.07,18Z"/><path class="a" d="M73.09,57.85A13.27,13.27,0,0,1,59.41,44.36,13.27,13.27,0,0,1,73.09,30.83a12.78,12.78,0,0,1,13,11H78.92a6.08,6.08,0,0,0-5.81-4.35c-3.65,0-6.32,2.93-6.32,6.91s2.67,6.85,6.32,6.85a5.91,5.91,0,0,0,5.81-4.71h7.25A12.84,12.84,0,0,1,73.09,57.85Z"/><path class="a" d="M102.62,57.85c-8.27,0-14.17-5.65-14.17-13.51s5.9-13.51,14.17-13.51,14.13,5.63,14.13,13.51-5.88,13.51-14.13,13.51Zm0-6.59a6.61,6.61,0,0,0,6.75-6.92,6.77,6.77,0,1,0-13.54,0,6.64,6.64,0,0,0,6.79,6.92Z"/><path class="a" d="M135.74,50.71V57.2H119.4V31.48h7.18V50.71Z"/><path class="a" d="M154.69,50.71V57.2H138.35V31.48h7.18V50.71Z"/><path class="a" d="M174.07,51.05V57.2H157.3V31.48h16.46V37.6h-9.4v3.79h8.45V47.2h-8.45v3.85Z"/><path class="a" d="M202.82,43.45c0,8.42-5.5,14.4-13.55,14.4-7.89,0-13.71-5.67-13.71-13.49s5.72-13.53,13.64-13.53c6.75,0,12.26,4.22,13.35,10.19h-7.43a6.24,6.24,0,0,0-5.85-3.56c-3.86,0-6.45,2.79-6.45,6.9s2.55,6.85,6.45,6.85c2.7,0,5-1.31,5.83-3.29h-6.39V43.45Z"/><path class="a" d="M222.2,51.05V57.2H205.43V31.48h16.46V37.6h-9.4v3.79h8.44V47.2h-8.44v3.85Z"/><path class="a" d="M22.55,42.92h-6.5V31.44H0V57.2H23.29c16.18,0,27.92-10.61,29.11-25.76H36.33C35.29,38.36,30,42.92,22.55,42.92Z"/><path class="b" d="M16,14.88h6.5c7.53,0,12.8,4.49,13.8,11.49H52.4C51.25,11.15,39.54.6,23.28.6H0V26.37H16Z"/><polygon class="a" points="26.11 20.82 27.91 26.36 33.73 26.36 29.02 29.78 30.82 35.32 26.11 31.9 21.4 35.32 23.2 29.78 18.49 26.36 24.31 26.36 26.11 20.82"/></svg>