<svg xmlns="http://www.w3.org/2000/svg" viewBox="0 0 68.27 73.73"><defs><style>.a{fill:#fff;}</style></defs><path class="a" d="M29.38,55.13H20.9v-15H0V73.73H30.34c21.08,0,36.37-13.83,37.93-33.56H47.33C46,49.18,39.13,55.13,29.38,55.13Z"/><path class="a" d="M20.89,18.6h8.48c9.8,0,16.66,5.85,18,15H68.27C66.76,13.74,51.51,0,30.33,0H0V33.56H20.89Z"/><polygon class="a" points="34.01 26.34 36.36 33.55 43.95 33.55 37.81 38.01 40.15 45.23 34.01 40.77 27.88 45.23 30.22 38.01 24.08 33.55 31.67 33.55 34.01 26.34"/></svg>